#N canvas 29 81 1297 464 10;
#X obj 362 151 vibrato 5 1.5;
#X obj 33 224 mtof;
#X obj 503 101 line~;
#X obj 575 173 *~ 15;
#X obj 379 171 *~ 0.5;
#X obj 593 320 r \$0-trig;
#X obj 608 217 r \$0-trig;
#X obj 395 316 r \$0-trig;
#X obj 412 215 r \$0-trig;
#X obj 575 258 *~ 0.1;
#X obj 379 255 *~ 0.5;
#X obj 36 9 hsl 128 15 0 127 0 0 empty empty empty -2 -8 0 10 -262144
-1 -1 9100 1;
#X floatatom 37 52 5 0 0 0 - - -;
#X obj 37 31 expr 37 + ($f1 / 3);
#X obj 813 86 vsl 15 128 0 127 0 0 empty empty mod_att 0 -9 0 10 -262144
-1 -1 2600 1;
#X obj 865 86 vsl 15 128 0 127 0 0 empty empty mod_rel 0 -9 0 10 -262144
-1 -1 12000 1;
#X obj 917 86 vsl 15 128 0 127 0 0 empty empty car_att 0 -9 0 10 -262144
-1 -1 1000 1;
#X obj 968 87 vsl 15 128 0 127 0 0 empty empty car_rel 0 -9 0 10 -262144
-1 -1 1400 1;
#X obj 813 244 expr 1500 * ($f1 / 127) + 1;
#X obj 813 265 s \$0_mod_att;
#X obj 39 117 metro 500;
#X obj 40 89 tgl 15 0 empty empty empty 17 7 0 10 -262144 -1 -1 0 1
;
#X obj 40 140 random 24;
#X obj 427 193 r \$0_mod_att;
#X obj 865 286 expr 1500 * ($f1 / 127) + 1;
#X obj 865 307 s \$0_mod_rel;
#X obj 919 330 expr 1500 * ($f1 / 127) + 1;
#X obj 919 352 s \$0_car_att;
#X obj 971 375 expr 1500 * ($f1 / 127) + 1;
#X obj 971 397 s \$0_car_rel;
#X obj 656 194 r \$0_mod_rel;
#X obj 396 292 r \$0_car_att;
#X obj 616 294 r \$0_car_rel;
#X obj 662 317 / 2;
#X obj 38 165 + 48, f 5;
#X floatatom 38 186 5 0 0 0 - - -;
#X obj 379 235 fm_op 1 1500;
#X obj 575 238 fm_op 1 1500;
#X obj 562 358 fm_op 1 1500;
#X obj 364 354 fm_op 1 1500;
#X obj 1193 118 tgl 15 0 empty empty empty 17 7 0 10 -262144 -1 -1
0 1;
#X obj 1186 145 change;
#X msg 1154 98 0;
#X msg 1228 98 1;
#X obj 1159 39 t b b;
#X obj 1154 75 delay 100;
#X obj 1184 172 s \$0-trig;
#X obj 1150 11 r \$0-note;
#X obj 32 248 s \$0-note;
#X obj 499 52 r \$0-note;
#X floatatom 813 222 5 0 0 0 - - -;
#X floatatom 865 222 5 0 0 0 - - -;
#X floatatom 917 222 5 0 0 0 - - -;
#X floatatom 968 223 5 0 0 0 - - -;
#X msg 812 50 26;
#X msg 865 50 120;
#X msg 912 49 10;
#X msg 967 48 14;
#X obj 813 18 bng 15 250 50 0 empty empty empty 17 7 0 10 -262144 -1
-1;
#X obj 575 195 r \$0_mod_sus;
#X obj 473 291 r \$0_car_sus;
#X obj 1021 86 vsl 15 128 0 1 0 0 empty empty mod_sus 0 -9 0 10 -262144
-1 -1 1524 1;
#X obj 1072 87 vsl 15 128 0 1 0 0 empty empty car_sus 0 -9 0 10 -262144
-1 -1 8890 1;
#X floatatom 1021 222 5 0 0 0 - - #0_mod_sus;
#X floatatom 1072 223 5 0 0 0 - - #0_car_sus;
#X msg 1016 49 0.12;
#X msg 1071 48 0.7;
#X obj 502 77 list append 10;
#X obj 480 408 *~ 0.5;
#X obj 849 7 loadbang;
#X obj 177 15 inlet;
#X obj 176 39 t a b;
#X floatatom 220 155 5 0 0 0 - - -;
#X obj 181 135 *;
#X obj 177 63 t f b b b;
#X obj 181 157 +;
#X obj 233 117 f \$1;
#X obj 202 92 f \$2;
#X obj 450 433 outlet~;
#X obj 512 432 outlet~;
#X connect 0 0 39 0;
#X connect 1 0 48 0;
#X connect 2 0 0 0;
#X connect 2 0 3 0;
#X connect 2 0 4 0;
#X connect 2 0 38 0;
#X connect 3 0 37 0;
#X connect 4 0 36 0;
#X connect 5 0 38 2;
#X connect 6 0 37 2;
#X connect 7 0 39 2;
#X connect 8 0 36 2;
#X connect 9 0 38 1;
#X connect 10 0 39 1;
#X connect 11 0 13 0;
#X connect 12 0 1 0;
#X connect 13 0 12 0;
#X connect 14 0 18 0;
#X connect 14 0 50 0;
#X connect 15 0 24 0;
#X connect 15 0 51 0;
#X connect 16 0 26 0;
#X connect 16 0 27 0;
#X connect 16 0 52 0;
#X connect 17 0 28 0;
#X connect 17 0 53 0;
#X connect 18 0 19 0;
#X connect 20 0 22 0;
#X connect 21 0 20 0;
#X connect 22 0 34 0;
#X connect 23 0 36 3;
#X connect 23 0 37 3;
#X connect 24 0 25 0;
#X connect 26 0 27 0;
#X connect 28 0 29 0;
#X connect 30 0 37 5;
#X connect 30 0 36 5;
#X connect 31 0 38 3;
#X connect 31 0 39 3;
#X connect 32 0 33 0;
#X connect 32 0 39 5;
#X connect 33 0 38 5;
#X connect 34 0 35 0;
#X connect 35 0 1 0;
#X connect 36 0 10 0;
#X connect 37 0 9 0;
#X connect 38 0 68 0;
#X connect 39 0 68 0;
#X connect 40 0 41 0;
#X connect 41 0 46 0;
#X connect 42 0 40 0;
#X connect 43 0 40 0;
#X connect 44 0 45 0;
#X connect 44 1 43 0;
#X connect 45 0 42 0;
#X connect 47 0 44 0;
#X connect 49 0 67 0;
#X connect 54 0 14 0;
#X connect 55 0 15 0;
#X connect 56 0 16 0;
#X connect 57 0 17 0;
#X connect 58 0 54 0;
#X connect 58 0 57 0;
#X connect 58 0 56 0;
#X connect 58 0 55 0;
#X connect 58 0 65 0;
#X connect 58 0 66 0;
#X connect 59 0 37 4;
#X connect 59 0 36 4;
#X connect 60 0 38 4;
#X connect 60 0 39 4;
#X connect 61 0 63 0;
#X connect 62 0 64 0;
#X connect 65 0 61 0;
#X connect 66 0 62 0;
#X connect 67 0 2 0;
#X connect 68 0 79 0;
#X connect 68 0 78 0;
#X connect 69 0 58 0;
#X connect 70 0 71 0;
#X connect 71 0 74 0;
#X connect 73 0 75 0;
#X connect 74 0 73 0;
#X connect 74 2 77 0;
#X connect 74 3 76 0;
#X connect 75 0 72 0;
#X connect 75 0 1 0;
#X connect 76 0 75 1;
#X connect 77 0 73 1;
