#N canvas 84 70 507 532 10;
#X obj 74 241 cos~;
#X obj 74 209 +~;
#X obj 75 315 outlet~;
#X obj 74 157 phasor~;
#X obj 74 128 inlet~;
#X obj 91 188 inlet~;
#X obj 75 278 *~;
#X obj 185 125 inlet;
#X obj 246 123 inlet;
#X obj 333 120 inlet;
#X msg 191 215 1;
#X obj 173 189 t a b;
#X obj 293 121 inlet;
#X obj 277 167 * 100;
#X obj 170 243 adsr 1 \$1 \$2 50 \$2;
#X connect 0 0 6 0;
#X connect 1 0 0 0;
#X connect 3 0 1 0;
#X connect 4 0 3 0;
#X connect 5 0 1 1;
#X connect 6 0 2 0;
#X connect 7 0 11 0;
#X connect 8 0 14 2;
#X connect 9 0 14 3;
#X connect 9 0 14 5;
#X connect 10 0 14 1;
#X connect 11 0 14 0;
#X connect 11 1 10 0;
#X connect 12 0 13 0;
#X connect 13 0 14 4;
#X connect 14 0 6 1;
