#N canvas 313 410 460 409 10;
#X obj 133 299 outlet~;
#X obj 133 258 osc~;
#X obj 133 235 +~;
#X obj 148 175 *~;
#X obj 148 153 osc~;
#X obj 133 279 *~;
#X obj 229 59 inlet~;
#X obj 146 117 *~ \$1;
#X obj 182 153 *~ \$2;
#X text 34 333 simpe fmsynth \, the 1st arg is the harmonicity ratio
and the second is the modulation index.;
#X obj 124 58 inlet~;
#X obj 298 56 inlet~;
#X obj 149 207 *~;
#X connect 1 0 5 0;
#X connect 2 0 1 0;
#X connect 3 0 12 0;
#X connect 4 0 3 0;
#X connect 5 0 0 0;
#X connect 6 0 5 1;
#X connect 7 0 4 0;
#X connect 7 0 8 0;
#X connect 8 0 3 1;
#X connect 10 0 7 0;
#X connect 10 0 2 0;
#X connect 11 0 12 1;
#X connect 12 0 2 1;
