#N canvas 803 167 399 266 10;
#X obj 113 73 inlet;
#X obj 37 73 inlet~;
#X obj 160 206 outlet~;
#X obj 113 96 unpack f f f f f f f f f;
#X obj 281 73 inlet;
#X obj 300 104 float 1;
#X obj 325 73 loadbang;
#X obj 100 161 sformant;
#X text 29 12 This is actually a bank of three band pass filters with
variable center frequency \, Q and amplitude.;
#X text 24 56 Osc Input;
#X text 111 56 Formant data;
#X text 279 55 Formant Base;
#X obj 220 161 sformant;
#X obj 159 161 sformant;
#X connect 0 0 3 0;
#X connect 1 0 7 0;
#X connect 1 0 12 0;
#X connect 1 0 13 0;
#X connect 3 0 7 1;
#X connect 3 1 7 2;
#X connect 3 2 7 3;
#X connect 3 3 13 1;
#X connect 3 4 13 2;
#X connect 3 5 13 3;
#X connect 3 6 12 1;
#X connect 3 7 12 2;
#X connect 3 8 12 3;
#X connect 4 0 5 0;
#X connect 5 0 7 4;
#X connect 5 0 12 4;
#X connect 5 0 13 4;
#X connect 6 0 5 0;
#X connect 7 0 2 0;
#X connect 12 0 2 0;
#X connect 13 0 2 0;
