#N canvas 583 29 609 766 10;
#X obj 22 208 netreceive -u -b;
#X obj 22 254 oscparse;
#X obj 22 275 list trim;
#X obj 22 157 loadbang;
#X obj 31 230 r osctestinput;
#X obj 23 111 s osctestinput;
#X obj 348 17 loadbang;
#X msg 348 65 \; pd dsp 1;
#X obj 348 124 print;
#X msg 348 100 turned dsp on.;
#X obj 348 41 delay 2000;
#X obj 186 399 select 0;
#X msg 22 180 listen 3000;
#X obj 23 87 oscformat interface;
#X obj 110 45 bng 30 250 50 0 empty empty test 32 7 0 10 -257985 -1
-1;
#X obj 23 44 random 1000;
#X obj 23 66 / 1000;
#X obj 260 44 bng 30 250 50 0 empty empty test 32 7 0 10 -4034 -1 -1
;
#X obj 173 43 random 1000;
#X obj 173 65 / 1000;
#X obj 173 86 oscformat prediction;
#X obj 22 295 route interface prediction;
#X obj 397 183 ctlin 9 11;
#X floatatom 397 208 5 0 0 0 - - -;
#X obj 400 232 hsl 128 15 0 127 0 0 empty empty empty -2 -8 0 10 -262144
-1 -1 0 1;
#X obj 397 256 / 127;
#X obj 397 302 s osctestinput;
#X obj 397 278 oscformat interface;
#N canvas 990 479 450 300 output_stage 0;
#X obj 83 41 inlet~;
#X obj 212 39 inlet~;
#X obj 134 179 dac~;
#X text 215 186 rev2~ 55 85 3000 60;
#X obj 109 113 hip~ 85;
#X obj 179 114 hip~ 85;
#X connect 0 0 4 0;
#X connect 1 0 5 0;
#X connect 4 0 2 0;
#X connect 5 0 2 1;
#X restore 127 477 pd output_stage;
#X floatatom 399 346 5 0 0 0 - - -;
#X obj 402 363 hsl 128 15 0 127 0 0 empty empty empty -2 -8 0 10 -262144
-1 -1 0 1;
#X obj 399 383 / 127;
#X obj 399 424 s osctestinput;
#X obj 399 404 oscformat prediction;
#X obj 399 325 ctlin 1 11;
#X text 22 17 parses OSC messages to play in the an fmsynth.;
#X text 462 157 arduino;
#X text 462 179 xtouch debug;
#X text 469 324 xtouch debug;
#X obj 397 537 ctlout 0 0;
#X obj 144 317 s pred_value_float;
#X obj 396 458 r pred_value_float;
#X obj 397 477 * 127;
#X obj 397 496 int;
#N canvas 96 218 203 137 prediction_osc_in 0;
#X obj 39 69 netreceive -u -b;
#X msg 40 48 listen 5000;
#X obj 41 28 bng 15 250 50 0 empty empty empty 17 7 0 10 -262144 -1
-1;
#X obj 41 7 inlet;
#X obj 40 89 s osctestinput;
#X obj 87 9 loadbang;
#X connect 0 0 4 0;
#X connect 1 0 0 0;
#X connect 2 0 1 0;
#X connect 3 0 2 0;
#X connect 5 0 2 0;
#X restore 174 115 pd prediction_osc_in;
#N canvas 186 182 327 239 interface_osc_out 0;
#X obj 20 185 netsend -u -b;
#X obj 21 112 list prepend send;
#X obj 21 137 list trim;
#X obj 20 66 list trim;
#X obj 20 88 oscformat interface;
#X msg 148 123 connect localhost 5001;
#X msg 147 144 disconnect;
#X obj 20 20 inlet;
#X obj 20 42 / 127;
#X obj 150 101 bng 15 250 50 0 empty empty empty 17 7 0 10 -262144
-1 -1;
#X obj 193 54 loadbang;
#X obj 150 55 inlet;
#X obj 11 1 r osc_output;
#X obj 193 77 delay 1000;
#X obj 39 214 select 0;
#X connect 0 0 14 0;
#X connect 1 0 2 0;
#X connect 2 0 0 0;
#X connect 3 0 4 0;
#X connect 4 0 1 0;
#X connect 5 0 0 0;
#X connect 6 0 0 0;
#X connect 7 0 8 0;
#X connect 8 0 3 0;
#X connect 9 0 5 0;
#X connect 10 0 13 0;
#X connect 11 0 9 0;
#X connect 12 0 1 0;
#X connect 13 0 9 0;
#X connect 14 0 9 0;
#X restore 174 139 pd interface_osc_out;
#X obj 490 302 s osc_output;
#X obj 397 516 spigot;
#X obj 186 379 r pred_value_float;
#X obj 24 400 r inter_value_float;
#X obj 22 317 s inter_value_float;
#X obj 444 499 tgl 15 0 empty empty empty 17 7 0 10 -262144 -1 -1 1
1;
#X obj 444 479 r servo_onoff;
#X obj 452 16 loadbang;
#X obj 452 37 f 1;
#X obj 452 58 s servo_onoff;
#X obj 397 137 notein 1;
#X obj 397 158 ctlin;
#X obj 400 559 hsl 128 15 0 127 0 0 empty empty empty -2 -8 0 10 -262144
-1 -1 0 1;
#X obj 25 419 lever_formant 60 24;
#X obj 187 419 lever_formant 48 24;
#X connect 0 0 1 0;
#X connect 1 0 2 0;
#X connect 2 0 21 0;
#X connect 3 0 12 0;
#X connect 4 0 1 0;
#X connect 6 0 10 0;
#X connect 9 0 8 0;
#X connect 10 0 7 0;
#X connect 10 0 9 0;
#X connect 11 1 60 0;
#X connect 12 0 0 0;
#X connect 13 0 5 0;
#X connect 14 0 15 0;
#X connect 15 0 16 0;
#X connect 16 0 13 0;
#X connect 17 0 18 0;
#X connect 18 0 19 0;
#X connect 19 0 20 0;
#X connect 20 0 5 0;
#X connect 21 0 50 0;
#X connect 21 1 40 0;
#X connect 22 0 23 0;
#X connect 23 0 24 0;
#X connect 24 0 25 0;
#X connect 25 0 27 0;
#X connect 27 0 26 0;
#X connect 27 0 46 0;
#X connect 29 0 30 0;
#X connect 30 0 31 0;
#X connect 31 0 33 0;
#X connect 33 0 32 0;
#X connect 34 0 29 0;
#X connect 41 0 42 0;
#X connect 42 0 43 0;
#X connect 43 0 47 0;
#X connect 43 0 58 0;
#X connect 47 0 39 0;
#X connect 48 0 11 0;
#X connect 49 0 59 0;
#X connect 51 0 47 1;
#X connect 52 0 51 0;
#X connect 53 0 54 0;
#X connect 54 0 55 0;
#X connect 56 1 23 0;
#X connect 57 0 23 0;
#X connect 59 0 28 0;
#X connect 59 1 28 1;
#X connect 60 0 28 0;
#X connect 60 1 28 1;
