#N canvas 339 217 506 520 10;
#X obj 155 445 outlet~;
#X obj 217 444 outlet~;
#X obj 180 35 inlet;
#X obj 179 59 t a b;
#X obj 184 198 mtof;
#X floatatom 223 175 5 0 0 0 - - -;
#X obj 184 155 *;
#X obj 180 83 t f b b b;
#X obj 184 177 +;
#X obj 236 137 f \$1;
#X obj 205 112 f \$2;
#X obj 189 273 line~;
#X obj 186 224 list append 100;
#X obj 282 288 vline~;
#X obj 360 123 tgl 15 0 empty empty empty 17 7 0 10 -262144 -1 -1 0
1;
#X obj 353 150 change;
#X msg 321 103 0;
#X msg 395 103 1;
#X obj 326 44 t b b;
#X obj 352 174 * 127;
#X obj 321 80 delay 100;
#X msg 290 228 1 100 \, 0 250 100;
#X obj 186 393 *~ 0.5;
#N canvas 29 43 450 300 vib 0;
#X obj 144 64 inlet~;
#X obj 145 210 outlet~;
#X obj 144 168 +~;
#X obj 200 95 osc~ 0;
#X obj 200 64 inlet;
#X obj 281 65 inlet;
#X obj 199 123 *~ 0;
#X connect 0 0 2 0;
#X connect 2 0 1 0;
#X connect 3 0 6 0;
#X connect 4 0 3 0;
#X connect 5 0 6 1;
#X connect 6 0 2 1;
#X restore 105 298 pd vib;
#X msg 123 260 5;
#X msg 156 259 1.5;
#X obj 130 232 loadbang;
#X obj 193 353 vcf~ 2;
#X obj 184 324 fmsynth 1.05 0.15;
#X obj 344 287 vline~;
#X msg 123 35 0.5;
#X msg 341 249 1 400 \, 0 250 400;
#X connect 2 0 3 0;
#X connect 3 0 7 0;
#X connect 3 1 21 0;
#X connect 3 1 31 0;
#X connect 4 0 12 0;
#X connect 6 0 8 0;
#X connect 7 0 6 0;
#X connect 7 2 10 0;
#X connect 7 3 9 0;
#X connect 8 0 4 0;
#X connect 8 0 5 0;
#X connect 9 0 8 1;
#X connect 10 0 6 1;
#X connect 11 0 23 0;
#X connect 11 0 27 1;
#X connect 12 0 11 0;
#X connect 13 0 28 1;
#X connect 14 0 15 0;
#X connect 15 0 19 0;
#X connect 16 0 14 0;
#X connect 17 0 14 0;
#X connect 18 0 20 0;
#X connect 18 1 17 0;
#X connect 20 0 16 0;
#X connect 21 0 13 0;
#X connect 22 0 0 0;
#X connect 22 0 1 0;
#X connect 23 0 28 0;
#X connect 24 0 23 1;
#X connect 25 0 23 2;
#X connect 26 0 24 0;
#X connect 26 0 25 0;
#X connect 27 0 22 0;
#X connect 28 0 27 0;
#X connect 29 0 28 2;
#X connect 30 0 3 0;
#X connect 31 0 29 0;
