#N canvas 1132 188 840 787 10;
#X obj 129 275 netreceive -u -b;
#X obj 129 321 oscparse;
#X obj 129 342 list trim;
#X obj 129 223 loadbang;
#X obj 138 297 r osctestinput;
#X obj 23 111 s osctestinput;
#X obj 454 11 loadbang;
#X msg 463 78 \; pd dsp 1;
#X obj 441 136 print;
#X msg 441 112 turned dsp on.;
#X obj 457 40 delay 2000;
#X obj 228 460 select 0;
#X msg 129 247 listen 3000;
#X obj 23 87 oscformat interface;
#X obj 110 45 bng 30 250 50 0 empty empty test 32 7 0 10 -257985 -1
-1;
#X obj 23 44 random 1000;
#X obj 23 66 / 1000;
#X obj 260 44 bng 30 250 50 0 empty empty test 32 7 0 10 -4034 -1 -1
;
#X obj 173 43 random 1000;
#X obj 173 65 / 1000;
#X obj 173 86 oscformat prediction;
#X obj 129 362 route interface prediction;
#X obj 552 322 ctlin 9 11;
#X floatatom 543 347 5 0 0 0 - - -;
#X obj 555 366 hsl 128 15 0 127 0 0 empty empty empty -2 -8 0 10 -262144
-1 -1 7300 1;
#X obj 543 384 / 127;
#X obj 543 425 s osctestinput;
#X obj 543 405 oscformat interface;
#N canvas 1197 479 450 300 output_stage 0;
#X obj 83 41 inlet~;
#X obj 212 39 inlet~;
#X obj 134 179 dac~;
#X text 215 186 rev2~ 55 85 3000 60;
#X obj 109 113 hip~ 85;
#X obj 179 114 hip~ 85;
#X connect 0 0 4 0;
#X connect 1 0 5 0;
#X connect 4 0 2 0;
#X connect 5 0 2 1;
#X restore 170 595 pd output_stage;
#X floatatom 545 474 5 0 0 0 - - -;
#X obj 548 491 hsl 128 15 0 127 0 0 empty empty empty -2 -8 0 10 -262144
-1 -1 7400 1;
#X obj 545 511 / 127;
#X obj 545 552 s osctestinput;
#X obj 545 532 oscformat prediction;
#X obj 545 453 ctlin 1 11;
#X obj 73 540 lever_synth_engine2 60 24;
#X text 22 17 parses OSC messages to play in the an fmsynth.;
#X obj 288 533 lever_synth_engine2 36 24;
#X obj 539 297 ctlin 0 1;
#X text 604 299 arduino;
#X text 622 322 xtouch debug;
#X text 615 452 xtouch debug;
#X obj 543 643 ctlout 0 0;
#X obj 229 387 s pred_value_float;
#X obj 542 586 r pred_value_float;
#X obj 543 605 * 127;
#X obj 543 624 int;
#X connect 0 0 1 0;
#X connect 1 0 2 0;
#X connect 2 0 21 0;
#X connect 3 0 12 0;
#X connect 4 0 1 0;
#X connect 6 0 10 0;
#X connect 9 0 8 0;
#X connect 10 0 7 0;
#X connect 10 0 9 0;
#X connect 11 1 37 0;
#X connect 12 0 0 0;
#X connect 13 0 5 0;
#X connect 14 0 15 0;
#X connect 15 0 16 0;
#X connect 16 0 13 0;
#X connect 17 0 18 0;
#X connect 18 0 19 0;
#X connect 19 0 20 0;
#X connect 20 0 5 0;
#X connect 21 0 35 0;
#X connect 21 1 11 0;
#X connect 21 1 43 0;
#X connect 22 0 23 0;
#X connect 23 0 24 0;
#X connect 24 0 25 0;
#X connect 25 0 27 0;
#X connect 27 0 26 0;
#X connect 29 0 30 0;
#X connect 30 0 31 0;
#X connect 31 0 33 0;
#X connect 33 0 32 0;
#X connect 34 0 29 0;
#X connect 35 0 28 0;
#X connect 35 1 28 1;
#X connect 37 0 28 1;
#X connect 37 0 28 0;
#X connect 38 0 23 0;
#X connect 44 0 45 0;
#X connect 45 0 46 0;
#X connect 46 0 42 0;
