#N canvas 132 23 967 586 10;
#X obj 531 234 textfile;
#X obj 504 167 t b f;
#X floatatom 326 105 5 0 500 2 freq #0-note -;
#X floatatom 417 115 5 0 100 2 Pulse_Width pulse-width -;
#X obj 423 335 hip~ 100;
#X floatatom 518 286 5 0 2 2 Formant_Base formant-base -;
#X floatatom 504 115 5 1 8 2 Vowel vowel -;
#X obj 504 139 int;
#X obj 625 307 loadbang;
#X obj 423 302 forfil3;
#N canvas 0 23 346 239 pulsegen 0;
#X obj 173 36 inlet;
#X obj 85 75 phasor~;
#X obj 86 114 expr~ $v1 > $v2;
#X obj 86 145 expr~ ($v1 - 0.5) *2;
#X obj 173 75 expr 1-($f1/100);
#X obj 86 181 outlet~;
#X obj 85 36 inlet~;
#X connect 0 0 4 0;
#X connect 1 0 2 0;
#X connect 2 0 3 0;
#X connect 3 0 5 0;
#X connect 4 0 2 1;
#X connect 6 0 1 0;
#X restore 354 176 pd pulsegen;
#X text 558 99 1- a;
#X text 558 114 2- e;
#X text 558 129 3- I;
#X text 558 144 4- i;
#X text 602 99 5- o;
#X text 602 114 6- :o;
#X text 602 129 7- u;
#X text 602 144 8- :u;
#X obj 353 212 lop~ 5000;
#X obj 365 438 outlet~;
#X obj 428 439 outlet~;
#X obj 33 321 mtof;
#X obj 36 106 hsl 128 15 0 127 0 0 empty empty empty -2 -8 0 10 -262144
-1 -1 0 1;
#X floatatom 37 149 5 0 0 0 - - -;
#X obj 37 128 expr 37 + ($f1 / 3);
#X obj 39 214 metro 500;
#X obj 40 186 tgl 15 0 empty empty empty 17 7 0 10 -262144 -1 -1 0
1;
#X obj 40 237 random 24;
#X obj 38 262 + 48, f 5;
#X floatatom 38 283 5 0 0 0 - - -;
#X obj 32 345 s \$0-note;
#X obj 177 112 inlet;
#X obj 176 136 t a b;
#X floatatom 220 252 5 0 0 0 - - -;
#X obj 181 232 *;
#X obj 177 160 t f b b b;
#X obj 181 254 +;
#X obj 233 214 f \$1;
#X obj 202 189 f \$2;
#X obj 324 129 list append 10;
#X obj 325 153 line~;
#X obj 790 209 tgl 15 0 empty empty empty 17 7 0 10 -262144 -1 -1 0
1;
#X obj 783 236 change;
#X msg 751 189 0;
#X msg 825 189 1;
#X obj 756 130 t b b;
#X obj 751 166 delay 100;
#X obj 781 263 s \$0-trig;
#X obj 747 102 r \$0-note;
#X obj 337 361 adsr 1 10 200 80 100;
#X obj 413 388 *~;
#X obj 333 334 r \$0-trig;
#X obj 780 366 random 8;
#X obj 780 387 + 1;
#X obj 778 410 s vowel;
#X obj 777 317 r \$0-trig;
#X obj 797 337 select 0;
#X msg 531 198 read vowels/formant\$1.txt \, rewind;
#X msg 625 340 \; pulse-width 21 \; vowel 1 \; formant-base 1 \;;
#X connect 0 0 9 1;
#X connect 1 0 0 0;
#X connect 1 1 58 0;
#X connect 2 0 40 0;
#X connect 3 0 10 1;
#X connect 4 0 51 0;
#X connect 5 0 9 2;
#X connect 6 0 7 0;
#X connect 7 0 1 0;
#X connect 8 0 59 0;
#X connect 9 0 4 0;
#X connect 10 0 19 0;
#X connect 19 0 9 0;
#X connect 22 0 31 0;
#X connect 23 0 25 0;
#X connect 24 0 22 0;
#X connect 25 0 24 0;
#X connect 26 0 28 0;
#X connect 27 0 26 0;
#X connect 28 0 29 0;
#X connect 29 0 30 0;
#X connect 30 0 22 0;
#X connect 32 0 33 0;
#X connect 33 0 36 0;
#X connect 35 0 37 0;
#X connect 36 0 35 0;
#X connect 36 2 39 0;
#X connect 36 3 38 0;
#X connect 37 0 34 0;
#X connect 37 0 22 0;
#X connect 38 0 37 1;
#X connect 39 0 35 1;
#X connect 40 0 41 0;
#X connect 41 0 10 0;
#X connect 42 0 43 0;
#X connect 43 0 48 0;
#X connect 44 0 42 0;
#X connect 45 0 42 0;
#X connect 46 0 47 0;
#X connect 46 1 45 0;
#X connect 47 0 44 0;
#X connect 49 0 46 0;
#X connect 50 0 51 1;
#X connect 51 0 21 0;
#X connect 51 0 20 0;
#X connect 52 0 50 0;
#X connect 53 0 54 0;
#X connect 54 0 55 0;
#X connect 56 0 57 0;
#X connect 57 0 53 0;
#X connect 58 0 0 0;
