#N canvas 236 143 840 787 10;
#X obj 129 275 netreceive -u -b;
#X obj 129 321 oscparse;
#X obj 129 342 list trim;
#X obj 207 633 keys;
#X obj 87 636 chirp;
#X obj 117 509 list;
#N canvas 1126 381 450 300 serialisePairs 0;
#X obj 164 29 inlet;
#X obj 174 243 outlet;
#X obj 169 105 until;
#X obj 187 71 t b l;
#X obj 167 133 list append;
#X obj 187 166 list split 2;
#X obj 303 167 bang;
#X connect 0 0 3 0;
#X connect 2 0 4 0;
#X connect 3 0 2 0;
#X connect 3 1 4 1;
#X connect 4 0 5 0;
#X connect 5 0 1 0;
#X connect 5 1 4 1;
#X connect 5 2 6 0;
#X connect 6 0 2 1;
#X restore 116 534 pd serialisePairs;
#X text 14 8 parses OSC messages to play in the microjam synths. touch
messages have the address "touch" and instrument selection has the
address "inst".;
#X obj 129 223 loadbang;
#X msg 117 484 /x \$1 /y 0.5 /z 20;
#N canvas 2564 322 350 398 instrument_changes 0;
#X obj 77 254 outlet;
#X msg 127 147 list chirp;
#X obj 73 181 oscformat inst;
#X msg 29 106 list keys;
#X obj 167 60 loadbang;
#X obj 169 88 delay 1000;
#X connect 1 0 2 0;
#X connect 2 0 0 0;
#X connect 3 0 2 0;
#X connect 4 0 5 0;
#X connect 5 0 3 0;
#X connect 5 0 1 0;
#X restore 11 55 pd instrument_changes;
#X obj 138 297 r osctestinput;
#X obj 11 76 s osctestinput;
#X obj 10 184 s osctestinput;
#X obj 454 11 loadbang;
#X msg 463 78 \; pd dsp 1;
#X obj 441 136 print;
#X msg 441 112 turned dsp on.;
#X obj 457 40 delay 2000;
#X obj 298 510 list;
#N canvas 1126 381 450 300 serialisePairs 0;
#X obj 164 29 inlet;
#X obj 174 243 outlet;
#X obj 169 105 until;
#X obj 187 71 t b l;
#X obj 167 133 list append;
#X obj 187 166 list split 2;
#X obj 303 167 bang;
#X connect 0 0 3 0;
#X connect 2 0 4 0;
#X connect 3 0 2 0;
#X connect 3 1 4 1;
#X connect 4 0 5 0;
#X connect 5 0 1 0;
#X connect 5 1 4 1;
#X connect 5 2 6 0;
#X connect 6 0 2 1;
#X restore 297 535 pd serialisePairs;
#X msg 298 485 /x \$1 /y 0.5 /z 20;
#X obj 300 452 select 0;
#X msg 129 247 listen 3000;
#X obj 10 160 oscformat interface;
#X obj 97 118 bng 30 250 50 0 empty empty test 32 7 0 10 -257985 -1
-1;
#X obj 10 117 random 1000;
#X obj 10 139 / 1000;
#X obj 247 117 bng 30 250 50 0 empty empty test 32 7 0 10 -4034 -1
-1;
#X obj 160 116 random 1000;
#X obj 160 138 / 1000;
#X obj 160 159 oscformat prediction;
#X obj 129 362 route interface prediction;
#X obj 543 326 ctlin 9 11;
#X floatatom 543 347 5 0 0 0 - - -, f 5;
#X obj 546 364 hsl 128 15 0 127 0 0 empty empty empty -2 -8 0 10 -262144
-1 -1 400 1;
#X obj 543 384 / 127;
#X obj 543 425 s osctestinput;
#X obj 543 405 oscformat interface;
#X connect 0 0 1 0;
#X connect 1 0 2 0;
#X connect 2 0 32 0;
#X connect 5 0 6 0;
#X connect 6 0 4 0;
#X connect 8 0 23 0;
#X connect 9 0 5 0;
#X connect 10 0 12 0;
#X connect 11 0 1 0;
#X connect 14 0 18 0;
#X connect 17 0 16 0;
#X connect 18 0 15 0;
#X connect 18 0 17 0;
#X connect 19 0 20 0;
#X connect 20 0 3 0;
#X connect 21 0 19 0;
#X connect 22 1 21 0;
#X connect 23 0 0 0;
#X connect 24 0 13 0;
#X connect 25 0 26 0;
#X connect 26 0 27 0;
#X connect 27 0 24 0;
#X connect 28 0 29 0;
#X connect 29 0 30 0;
#X connect 30 0 31 0;
#X connect 31 0 13 0;
#X connect 32 0 9 0;
#X connect 32 1 22 0;
#X connect 33 0 34 0;
#X connect 34 0 35 0;
#X connect 35 0 36 0;
#X connect 36 0 38 0;
#X connect 38 0 37 0;
