#N canvas 614 157 1193 1048 10;
#X obj 595 648 *~ 0.5;
#X obj 406 33 inlet;
#X obj 405 57 t a b;
#X obj 556 686 outlet~;
#X obj 628 685 outlet~;
#N canvas 424 366 478 366 pmosc 0;
#X obj 119 199 cos~;
#X obj 119 167 +~;
#X obj 120 273 outlet~;
#X obj 119 115 phasor~;
#X obj 119 86 inlet~;
#X obj 136 146 inlet~;
#X obj 160 199 inlet~;
#X obj 120 236 *~;
#X text 38 21 phase-modulation oscillator;
#X text 38 57 signal inlets: 1: freq \, 2: phase \, 3: amp;
#X connect 0 0 7 0;
#X connect 1 0 0 0;
#X connect 3 0 1 0;
#X connect 4 0 3 0;
#X connect 5 0 1 1;
#X connect 6 0 7 1;
#X connect 7 0 2 0;
#X restore 673 513 pd pmosc;
#N canvas 424 366 478 366 pmosc 0;
#X obj 119 199 cos~;
#X obj 119 167 +~;
#X obj 120 273 outlet~;
#X obj 119 115 phasor~;
#X obj 119 86 inlet~;
#X obj 136 146 inlet~;
#X obj 160 199 inlet~;
#X obj 120 236 *~;
#X text 38 21 phase-modulation oscillator;
#X text 38 57 signal inlets: 1: freq \, 2: phase \, 3: amp;
#X connect 0 0 7 0;
#X connect 1 0 0 0;
#X connect 3 0 1 0;
#X connect 4 0 3 0;
#X connect 5 0 1 1;
#X connect 6 0 7 1;
#X connect 7 0 2 0;
#X restore 674 555 pd pmosc;
#N canvas 371 533 478 366 pmosc 0;
#X obj 119 199 cos~;
#X obj 119 167 +~;
#X obj 120 273 outlet~;
#X obj 119 115 phasor~;
#X obj 119 86 inlet~;
#X obj 136 146 inlet~;
#X obj 160 199 inlet~;
#X obj 120 236 *~;
#X text 38 21 phase-modulation oscillator;
#X text 38 57 signal inlets: 1: freq \, 2: phase \, 3: amp;
#X connect 0 0 7 0;
#X connect 1 0 0 0;
#X connect 3 0 1 0;
#X connect 4 0 3 0;
#X connect 5 0 1 1;
#X connect 6 0 7 1;
#X connect 7 0 2 0;
#X restore 539 515 pd pmosc;
#N canvas 424 366 478 366 pmosc 0;
#X obj 119 199 cos~;
#X obj 119 167 +~;
#X obj 120 273 outlet~;
#X obj 119 115 phasor~;
#X obj 119 86 inlet~;
#X obj 136 146 inlet~;
#X obj 160 199 inlet~;
#X obj 120 236 *~;
#X text 38 21 phase-modulation oscillator;
#X text 38 57 signal inlets: 1: freq \, 2: phase \, 3: amp;
#X connect 0 0 7 0;
#X connect 1 0 0 0;
#X connect 3 0 1 0;
#X connect 4 0 3 0;
#X connect 5 0 1 1;
#X connect 6 0 7 1;
#X connect 7 0 2 0;
#X restore 512 560 pd pmosc;
#X obj 512 202 mtof;
#X obj 255 326 * 0.535887;
#X obj 766 352 * 0.108819;
#X obj 770 484 / 127;
#X obj 226 472 / 127;
#X obj 255 304 / 127;
#X obj 255 349 t a a;
#X obj 226 494 t a a;
#X obj 770 506 t a a;
#X obj 766 372 t a a;
#X obj 766 326 / 127;
#X obj 770 456 r \$0-vel;
#X obj 766 297 r \$0-vel;
#X obj 226 444 r \$0-vel;
#X obj 255 278 r \$0-vel;
#X text 257 963 + --> Out;
#X text 210 977 2->1--/;
#X text 91 963 Algorithm 5 is : 4->3--;
#X text 713 532 op 4;
#X text 680 574 op 3;
#X text 547 578 op 1;
#X text 572 531 op 2;
#X text 890 419 op 4;
#X text 918 527 op 3;
#X text 401 516 op 1;
#X text 415 376 op 2;
#N canvas 29 43 450 300 vib 0;
#X obj 144 64 inlet~;
#X obj 145 210 outlet~;
#X obj 144 168 +~;
#X obj 200 95 osc~ 0;
#X obj 200 64 inlet;
#X obj 281 65 inlet;
#X obj 199 123 *~ 0;
#X connect 0 0 2 0;
#X connect 2 0 1 0;
#X connect 3 0 6 0;
#X connect 4 0 3 0;
#X connect 5 0 6 1;
#X connect 6 0 2 1;
#X restore 511 381 pd vib;
#X obj 657 645 pack 0 10;
#X obj 657 622 r \$0-tone;
#X obj 571 333 r \$0-vib-freq;
#X obj 583 356 r \$0-vib-depth;
#X obj 333 277 r \$0-adsr24;
#X obj 333 301 / 127;
#X obj 765 425 *~ 1;
#X obj 255 398 *~ 1;
#X obj 538 537 *~ 1;
#X obj 585 490 r \$0-mod;
#X obj 308 491 r \$0-decay;
#X obj 593 621 xfade f;
#X obj 226 520 adsr 1 1 1500 0 40;
#X obj 255 376 adsr 1 1 1500 0 40;
#X obj 766 400 adsr 1 1 1000 0 40;
#X obj 770 533 adsr 1 1 250 0 40;
#X obj 429 948 hsl 128 15 0 1 0 0 empty empty tone_(0...1) 20 7 1 10
-262144 -1 -1 6350 1;
#X obj 428 969 s \$0-tone;
#X obj 794 782 hsl 128 15 0 100 0 0 empty empty vib_freq_(0...100)
20 7 1 10 -262144 -1 -1 635 1;
#X obj 780 809 s \$0-vib-freq;
#X obj 940 779 hsl 128 15 0 5 0 0 empty empty vib_depth_(0..1) 20 7
1 10 -262144 -1 -1 8890 1;
#X obj 938 807 s \$0-vib-depth;
#X floatatom 601 946 5 0 0 0 - - -, f 5;
#X obj 604 965 s \$0-mod;
#X floatatom 694 946 5 0 0 0 - - -, f 5;
#X obj 694 965 s \$0-adsr24;
#X obj 244 790 hsl 128 15 0 3000 0 0 empty empty decay_(0...3000) 20
7 1 10 -262144 -1 -1 635 1;
#X obj 242 811 s \$0-decay;
#X obj 488 870 loadbang;
#X msg 599 921 1;
#X floatatom 499 968 5 0 0 0 - - -, f 5;
#X floatatom 881 810 5 0 0 0 - - -, f 5;
#X floatatom 1048 807 5 0 0 0 - - -, f 5;
#X floatatom 322 811 5 0 0 0 - - -, f 5;
#X obj 328 738 loadbang;
#X obj 841 296 r \$0-adsr24;
#X obj 841 320 / 127;
#X obj 666 154 s \$0-vel;
#X obj 648 130 f 127;
#X msg 790 759 5;
#X obj 826 488 r \$0-attack;
#X obj 287 467 r \$0-attack;
#X floatatom 437 158 5 0 0 0 - - -, f 5;
#X obj 459 235 list append;
#X obj 516 213 r \$0-attack;
#X msg 937 757 3.5;
#X obj 505 140 *;
#X obj 509 39 t f b b b;
#X obj 505 162 +;
#X text 56 10 arguments: 1 base (midi) \, 2 range (midi notes);
#X obj 557 122 f \$1;
#X obj 526 97 f \$2;
#X obj 539 262 line~;
#X obj 539 491 *~ 0.5;
#X obj 673 487 *~ 15;
#X msg 437 923 0.5;
#X msg 240 765 150;
#X obj 337 350 r \$0-mod-decay;
#X obj 934 346 r \$0-mod-decay;
#X obj 834 264 r \$0-mod-attack;
#X obj 319 252 r \$0-mod-attack;
#X obj 839 508 r \$0-decay;
#X obj 431 791 hsl 128 15 0 3000 0 0 empty empty decay_(0...3000) 20
7 1 10 -262144 -1 -1 847 1;
#X floatatom 533 815 5 0 0 0 - - -, f 5;
#X obj 578 789 hsl 128 15 0 3000 0 0 empty empty decay_(0...3000) 20
7 1 10 -262144 -1 -1 1270 1;
#X floatatom 689 813 5 0 0 0 - - -, f 5;
#X obj 93 785 hsl 128 15 0 3000 0 0 empty empty decay_(0...3000) 20
7 1 10 -262144 -1 -1 677 1;
#X floatatom 171 806 5 0 0 0 - - -, f 5;
#X obj 91 806 s \$0-attack;
#X msg 89 760 160;
#X obj 418 814 s \$0-mod-attack;
#X obj 576 810 s \$0-mod-decay;
#X obj 965 718 loadbang;
#X msg 574 764 300;
#X msg 427 766 200;
#X msg 690 922 127;
#X connect 0 0 3 0;
#X connect 0 0 4 0;
#X connect 1 0 2 0;
#X connect 2 0 83 0;
#X connect 5 0 6 1;
#X connect 6 0 47 1;
#X connect 7 0 44 0;
#X connect 8 0 47 0;
#X connect 9 0 79 0;
#X connect 10 0 15 0;
#X connect 11 0 18 0;
#X connect 12 0 17 0;
#X connect 13 0 16 0;
#X connect 14 0 10 0;
#X connect 15 0 49 0;
#X connect 15 1 49 1;
#X connect 16 0 48 0;
#X connect 16 1 48 1;
#X connect 17 0 51 0;
#X connect 17 1 51 1;
#X connect 18 0 50 0;
#X connect 18 1 50 1;
#X connect 19 0 11 0;
#X connect 20 0 12 0;
#X connect 21 0 19 0;
#X connect 22 0 13 0;
#X connect 23 0 14 0;
#X connect 35 0 8 0;
#X connect 35 0 6 0;
#X connect 36 0 47 2;
#X connect 37 0 36 0;
#X connect 38 0 35 1;
#X connect 39 0 35 2;
#X connect 40 0 41 0;
#X connect 41 0 43 1;
#X connect 42 0 5 2;
#X connect 43 0 7 2;
#X connect 44 0 8 1;
#X connect 45 0 44 1;
#X connect 46 0 48 3;
#X connect 47 0 0 0;
#X connect 48 0 8 2;
#X connect 49 0 43 0;
#X connect 50 0 42 0;
#X connect 51 0 6 2;
#X connect 52 0 53 0;
#X connect 52 0 66 0;
#X connect 54 0 55 0;
#X connect 54 0 67 0;
#X connect 56 0 57 0;
#X connect 56 0 68 0;
#X connect 58 0 59 0;
#X connect 60 0 61 0;
#X connect 62 0 63 0;
#X connect 62 0 69 0;
#X connect 64 0 111 0;
#X connect 64 0 65 0;
#X connect 64 0 91 0;
#X connect 65 0 58 0;
#X connect 70 0 92 0;
#X connect 70 0 105 0;
#X connect 70 0 110 0;
#X connect 70 0 109 0;
#X connect 71 0 72 0;
#X connect 72 0 42 1;
#X connect 74 0 73 0;
#X connect 75 0 54 0;
#X connect 76 0 51 2;
#X connect 77 0 48 2;
#X connect 79 0 88 0;
#X connect 80 0 79 1;
#X connect 81 0 56 0;
#X connect 82 0 84 0;
#X connect 83 0 82 0;
#X connect 83 1 74 0;
#X connect 83 2 87 0;
#X connect 83 3 86 0;
#X connect 84 0 9 0;
#X connect 84 0 78 0;
#X connect 86 0 84 1;
#X connect 87 0 82 1;
#X connect 88 0 35 0;
#X connect 88 0 90 0;
#X connect 88 0 89 0;
#X connect 89 0 7 0;
#X connect 90 0 5 0;
#X connect 91 0 52 0;
#X connect 92 0 62 0;
#X connect 93 0 49 3;
#X connect 94 0 50 3;
#X connect 95 0 50 2;
#X connect 96 0 49 2;
#X connect 97 0 51 3;
#X connect 98 0 99 0;
#X connect 98 0 106 0;
#X connect 100 0 101 0;
#X connect 100 0 107 0;
#X connect 102 0 103 0;
#X connect 102 0 104 0;
#X connect 105 0 102 0;
#X connect 108 0 75 0;
#X connect 108 0 81 0;
#X connect 109 0 100 0;
#X connect 110 0 98 0;
#X connect 111 0 60 0;
