#N canvas 2647 214 840 787 10;
#X obj 129 275 netreceive -u -b;
#X obj 129 321 oscparse;
#X obj 129 342 list trim;
#X text 14 8 parses OSC messages to play in the microjam synths. touch
messages have the address "touch" and instrument selection has the
address "inst".;
#X obj 129 223 loadbang;
#N canvas 2564 322 350 398 instrument_changes 0;
#X obj 77 254 outlet;
#X msg 127 147 list chirp;
#X obj 73 181 oscformat inst;
#X msg 29 106 list keys;
#X obj 167 60 loadbang;
#X obj 169 88 delay 1000;
#X connect 1 0 2 0;
#X connect 2 0 0 0;
#X connect 3 0 2 0;
#X connect 4 0 5 0;
#X connect 5 0 3 0;
#X connect 5 0 1 0;
#X restore 11 55 pd instrument_changes;
#X obj 138 297 r osctestinput;
#X obj 11 76 s osctestinput;
#X obj 10 184 s osctestinput;
#X obj 454 11 loadbang;
#X msg 463 78 \; pd dsp 1;
#X obj 441 136 print;
#X msg 441 112 turned dsp on.;
#X obj 457 40 delay 2000;
#X obj 300 452 select 0;
#X msg 129 247 listen 3000;
#X obj 10 160 oscformat interface;
#X obj 97 118 bng 30 250 50 0 empty empty test 32 7 0 10 -257985 -1
-1;
#X obj 10 117 random 1000;
#X obj 10 139 / 1000;
#X obj 247 117 bng 30 250 50 0 empty empty test 32 7 0 10 -4034 -1
-1;
#X obj 160 116 random 1000;
#X obj 160 138 / 1000;
#X obj 160 159 oscformat prediction;
#X obj 129 362 route interface prediction;
#X obj 543 326 ctlin 9 11;
#X floatatom 543 347 5 0 0 0 - - -, f 5;
#X obj 546 364 hsl 128 15 0 127 0 0 empty empty empty -2 -8 0 10 -262144
-1 -1 7700 1;
#X obj 543 384 / 127;
#X obj 543 425 s osctestinput;
#X obj 543 405 oscformat interface;
#N canvas 863 348 834 808 lever_chirp 0;
#X obj 33 44 list trim;
#X obj 106 338 osc~;
#X obj 106 385 *~ 0.5;
#X obj 34 241 + 85;
#X obj 34 216 * 2500;
#X obj 106 360 *~;
#X obj 158 267 line~;
#X msg 199 220 1 10;
#X obj 154 193 t b b;
#X obj 118 220 delay 50;
#X obj 26 293 line~;
#X obj 33 85 t a a;
#X obj 34 190 t f;
#X obj 31 18 inlet;
#X msg 32 264 \$1 5;
#X msg 118 242 0 100;
#X obj 67 420 outlet~;
#X obj 133 418 outlet~;
#X connect 0 0 11 0;
#X connect 1 0 5 0;
#X connect 2 0 16 0;
#X connect 2 0 17 0;
#X connect 3 0 14 0;
#X connect 4 0 3 0;
#X connect 5 0 2 0;
#X connect 6 0 5 1;
#X connect 7 0 6 0;
#X connect 8 0 9 0;
#X connect 8 1 7 0;
#X connect 9 0 15 0;
#X connect 10 0 1 0;
#X connect 11 0 12 0;
#X connect 11 1 8 0;
#X connect 12 0 4 0;
#X connect 13 0 0 0;
#X connect 14 0 10 0;
#X connect 15 0 6 0;
#X restore 116 433 pd lever_chirp;
#N canvas 1197 479 450 300 output_stage 0;
#X obj 89 39 inlet~;
#X obj 212 39 inlet~;
#X obj 134 179 dac~;
#X obj 127 89 rev2~ 55 85 3000 60;
#X connect 0 0 2 0;
#X connect 0 0 3 0;
#X connect 1 0 2 1;
#X connect 1 0 3 0;
#X connect 3 0 2 0;
#X connect 3 1 2 1;
#X restore 170 595 pd output_stage;
#X floatatom 545 474 5 0 0 0 - - -, f 5;
#X obj 548 491 hsl 128 15 0 127 0 0 empty empty empty -2 -8 0 10 -262144
-1 -1 1000 1;
#X obj 545 511 / 127;
#X obj 545 552 s osctestinput;
#X obj 545 532 oscformat prediction;
#X obj 545 453 ctlin 1 11;
#X obj 88 481 lever_synth_engine 60 24;
#X obj 292 479 lever_synth_engine 36 24;
#X connect 0 0 1 0;
#X connect 1 0 2 0;
#X connect 2 0 24 0;
#X connect 4 0 15 0;
#X connect 5 0 7 0;
#X connect 6 0 1 0;
#X connect 9 0 13 0;
#X connect 12 0 11 0;
#X connect 13 0 10 0;
#X connect 13 0 12 0;
#X connect 14 1 40 0;
#X connect 15 0 0 0;
#X connect 16 0 8 0;
#X connect 17 0 18 0;
#X connect 18 0 19 0;
#X connect 19 0 16 0;
#X connect 20 0 21 0;
#X connect 21 0 22 0;
#X connect 22 0 23 0;
#X connect 23 0 8 0;
#X connect 24 0 39 0;
#X connect 24 1 14 0;
#X connect 25 0 26 0;
#X connect 26 0 27 0;
#X connect 27 0 28 0;
#X connect 28 0 30 0;
#X connect 30 0 29 0;
#X connect 33 0 34 0;
#X connect 34 0 35 0;
#X connect 35 0 37 0;
#X connect 37 0 36 0;
#X connect 38 0 33 0;
#X connect 39 0 32 0;
#X connect 39 1 32 1;
#X connect 40 0 32 0;
#X connect 40 1 32 1;
