#N canvas 627 499 604 300 10;
#X obj 22 43 inlet~;
#X obj 69 170 bp~ 0 0;
#X obj 88 41 inlet;
#X obj 167 42 inlet;
#X obj 181 215 *~;
#X obj 256 157 + 100;
#X obj 256 184 dbtorms;
#X obj 256 41 inlet;
#X obj 182 245 outlet~;
#X obj 256 132 line;
#X obj 88 144 line;
#X obj 166 146 line;
#X obj 88 121 pack f 100;
#X obj 344 43 inlet;
#X obj 88 98 *;
#X obj 99 72 t b f;
#X text 10 23 Osc Input;
#X text 79 24;
#X text 72 22 Center Freq;
#X obj 166 121 pack f 100;
#X obj 256 107 pack f 100;
#X text 177 21 Q;
#X text 230 22 Amplitude (dB);
#X text 329 22 Formant Base;
#X connect 0 0 1 0;
#X connect 1 0 4 0;
#X connect 2 0 14 0;
#X connect 3 0 19 0;
#X connect 4 0 8 0;
#X connect 5 0 6 0;
#X connect 6 0 4 1;
#X connect 7 0 20 0;
#X connect 9 0 5 0;
#X connect 10 0 1 1;
#X connect 11 0 1 2;
#X connect 12 0 10 0;
#X connect 13 0 15 0;
#X connect 14 0 12 0;
#X connect 15 0 14 0;
#X connect 15 1 14 1;
#X connect 19 0 11 0;
#X connect 20 0 9 0;
