#N canvas 627 499 604 300 10;
#X obj 22 43 inlet~;
#X obj 88 41 inlet;
#X obj 167 42 inlet;
#X obj 181 215 *~;
#X obj 256 157 + 100;
#X obj 256 184 dbtorms;
#X obj 256 41 inlet;
#X obj 182 245 outlet~;
#X obj 256 132 line;
#X obj 88 121 pack f 100;
#X obj 344 43 inlet;
#X obj 88 98 *;
#X obj 99 72 t b f;
#X text 10 23 Osc Input;
#X text 82 5 comment;
#X text 72 22 Center Freq;
#X obj 166 121 pack f 100;
#X obj 256 107 pack f 100;
#X text 177 21 Q;
#X text 230 22 Amplitude (dB);
#X text 329 22 Formant Base;
#X obj 69 170 vcf~ 0 0;
#X obj 88 144 line~;
#X obj 166 146 line;
#X connect 0 0 21 0;
#X connect 1 0 11 0;
#X connect 2 0 16 0;
#X connect 3 0 7 0;
#X connect 4 0 5 0;
#X connect 5 0 3 1;
#X connect 6 0 17 0;
#X connect 8 0 4 0;
#X connect 9 0 22 0;
#X connect 10 0 12 0;
#X connect 11 0 9 0;
#X connect 12 0 11 0;
#X connect 12 1 11 1;
#X connect 16 0 23 0;
#X connect 17 0 8 0;
#X connect 21 0 3 0;
#X connect 22 0 21 1;
#X connect 23 0 21 2;
