#N canvas 0 23 450 300 10;
#X obj 144 64 inlet~;
#X obj 145 210 outlet~;
#X obj 144 168 +~;
#X obj 200 64 inlet;
#X obj 281 65 inlet;
#X obj 200 95 osc~ \$1;
#X obj 199 123 *~ \$2;
#X connect 0 0 2 0;
#X connect 2 0 1 0;
#X connect 3 0 5 0;
#X connect 4 0 6 1;
#X connect 5 0 6 0;
#X connect 6 0 2 1;
